<svg xmlns="http://www.w3.org/2000/svg" id="export" class="canvas" preserveAspectRatio="xMidYMid meet" style="position: absolute; margin: 0px;" width="168" height="1070"><rect id="background" fill="#fff" pointer-events="all" width="168" height="1070"/><g id="origin" transform="translate(7.6039062500000005, 7.6039062500000005) scale(1)"><g id="clusters" class="clusters"/><g id="edge-paths" class="edge-paths"><defs><marker id="arrowhead-vee" viewBox="0 0 10 10" refX="9" refY="5" markerUnits="strokeWidth" markerWidth="8" markerHeight="6" orient="auto" style="fill: rgb(0, 0, 0);"><path d="M 0 0 L 10 5 L 0 10 L 4 5 z" style="stroke-width: 1px; stroke-dasharray: 1px, 0px;"/></marker></defs><path class="edge-path" d="M76.0390625,20.96875L76.0390625,24.450520833333332C76.0390625,27.932291666666668,76.0390625,34.895833333333336,76.0390625,41.859375C76.0390625,48.822916666666664,76.0390625,55.786458333333336,76.0390625,59.268229166666664L76.0390625,62.75" marker-end="url(#arrowhead-vee)" id="edge-input" style="stroke: rgb(0, 0, 0); stroke-width: 1px; fill: none;"/><path class="edge-path" d="M76.0390625,102.328125L76.0390625,103.99479166666667C76.0390625,105.66145833333333,76.0390625,108.99479166666667,76.0390625,112.328125C76.0390625,115.66145833333333,76.0390625,118.99479166666667,76.0390625,120.66145833333333L76.0390625,122.328125" marker-end="url(#arrowhead-vee)" id="edge-InputReshape" style="stroke: rgb(0, 0, 0); stroke-width: 1px; fill: none;"/><path class="edge-path" d="M76.0390625,161.90625L76.0390625,163.57291666666666C76.0390625,165.23958333333334,76.0390625,168.57291666666666,76.0390625,171.90625C76.0390625,175.23958333333334,76.0390625,178.57291666666666,76.0390625,180.23958333333334L76.0390625,181.90625" marker-end="url(#arrowhead-vee)" id="edge-InputLayer" style="stroke: rgb(0, 0, 0); stroke-width: 1px; fill: none;"/><path class="edge-path" d="M76.0390625,221.484375L76.0390625,223.15104166666666C76.0390625,224.81770833333334,76.0390625,228.15104166666666,76.0390625,231.484375C76.0390625,234.81770833333334,76.0390625,238.15104166666666,76.0390625,239.81770833333334L76.0390625,241.484375" marker-end="url(#arrowhead-vee)" id="edge-InputDropoutLayer" style="stroke: rgb(0, 0, 0); stroke-width: 1px; fill: none;"/><path class="edge-path" d="M76.0390625,281.0625L76.0390625,282.7291666666667C76.0390625,284.3958333333333,76.0390625,287.7291666666667,76.0390625,291.0625C76.0390625,294.3958333333333,76.0390625,297.7291666666667,76.0390625,299.3958333333333L76.0390625,301.0625" marker-end="url(#arrowhead-vee)" id="edge-InputActivation" style="stroke: rgb(0, 0, 0); stroke-width: 1px; fill: none;"/><path class="edge-path" d="M76.0390625,403.68750762939453L76.0390625,405.3541742960612C76.0390625,407.02084096272785,76.0390625,410.3541742960612,76.0390625,413.68750762939453C76.0390625,417.02084096272785,76.0390625,420.3541742960612,76.0390625,422.02084096272785L76.0390625,423.68750762939453" marker-end="url(#arrowhead-vee)" id="edge-CoreLayer0" style="stroke: rgb(0, 0, 0); stroke-width: 1px; fill: none;"/><path class="edge-path" d="M76.0390625,526.3125152587891L76.0390625,527.9791819254557C76.0390625,529.6458485921224,76.0390625,532.9791819254557,76.0390625,536.3125152587891C76.0390625,539.6458485921224,76.0390625,542.9791819254557,76.0390625,544.6458485921224L76.0390625,546.3125152587891" marker-end="url(#arrowhead-vee)" id="edge-CoreLayer1" style="stroke: rgb(0, 0, 0); stroke-width: 1px; fill: none;"/><path class="edge-path" d="M76.0390625,648.9375228881836L76.0390625,650.6041895548502C76.0390625,652.270856221517,76.0390625,655.6041895548502,76.0390625,658.9375228881836C76.0390625,662.270856221517,76.0390625,665.6041895548502,76.0390625,667.270856221517L76.0390625,668.9375228881836" marker-end="url(#arrowhead-vee)" id="edge-CoreLayer2" style="stroke: rgb(0, 0, 0); stroke-width: 1px; fill: none;"/><path class="edge-path" d="M76.0390625,771.5625305175781L76.0390625,773.2291971842448C76.0390625,774.8958638509115,76.0390625,778.2291971842448,76.0390625,781.5625305175781C76.0390625,784.8958638509115,76.0390625,788.2291971842448,76.0390625,789.8958638509115L76.0390625,791.5625305175781" marker-end="url(#arrowhead-vee)" id="edge-CoreLayer3" style="stroke: rgb(0, 0, 0); stroke-width: 1px; fill: none;"/><path class="edge-path" d="M76.0390625,894.1875381469727L76.0390625,895.8542048136393C76.0390625,897.520871480306,76.0390625,900.8542048136393,76.0390625,904.1875381469727C76.0390625,907.520871480306,76.0390625,910.8542048136393,76.0390625,912.520871480306L76.0390625,914.1875381469727" marker-end="url(#arrowhead-vee)" id="edge-CoreLayer4" style="stroke: rgb(0, 0, 0); stroke-width: 1px; fill: none;"/><path class="edge-path" d="M76.0390625,953.7656631469727L76.0390625,955.4323298136393C76.0390625,957.098996480306,76.0390625,960.4323298136393,76.0390625,963.7656631469727C76.0390625,967.098996480306,76.0390625,970.4323298136393,76.0390625,972.098996480306L76.0390625,973.7656631469727" marker-end="url(#arrowhead-vee)" id="edge-OutputLayer" style="stroke: rgb(0, 0, 0); stroke-width: 1px; fill: none;"/><path class="edge-path" d="M76.0390625,1013.3437881469727L76.0390625,1015.0104548136393C76.0390625,1016.677121480306,76.0390625,1020.0104548136393,76.0390625,1023.3437881469727C76.0390625,1026.677121480306,76.0390625,1030.0104548136394,76.0390625,1031.677121480306L76.0390625,1033.3437881469727" marker-end="url(#arrowhead-vee)" id="edge-OutputActivation" style="stroke: rgb(0, 0, 0); stroke-width: 1px; fill: none;"/></g><g id="edge-labels" class="edge-labels"><g class="edge-label" transform="translate(108.703125,41.859375)" style="opacity: 1;"><g transform="translate(-27.6640625,-5.890625)"><text style="font-family: -apple-system, BlinkMacSystemFont, &quot;Segoe WPC&quot;, &quot;Segoe UI&quot;, Ubuntu, &quot;Droid Sans&quot;, sans-serif, &quot;PingFang SC&quot;; font-size: 10px;"><tspan xml:space="preserve" dy="1em" x="1">?×?×20×25</tspan></text></g></g></g><g id="nodes" class="nodes"><g id="node-InputReshape" class="node" transform="translate(76.0390625,82.5390625)" style="opacity: 1;"><g transform="translate(-56.1953125,-19.7890625)"><g><g class="node-item node-item-type node-item-type-shape" transform="translate(0,0)"><path d="M5,0h102.390625a5,5 0 0 1 5,5v15.96875a0,0 0 0 1 0,0h-112.390625a0,0 0 0 1 0,0v-15.96875a5,5 0 0 1 5,-5z" style="stroke: rgb(0, 0, 0); fill: rgb(108, 79, 71); stroke-width: 0px;"/><text x="6" y="14.640625" style="font-family: -apple-system, BlinkMacSystemFont, &quot;Segoe WPC&quot;, &quot;Segoe UI&quot;, Ubuntu, &quot;Droid Sans&quot;, sans-serif, &quot;PingFang SC&quot;; font-size: 11px; text-rendering: geometricPrecision; fill: rgb(255, 255, 255);">Reshape</text><title>InputReshape</title></g><g class="node-attribute" transform="translate(0,20.96875)"><path d="M0,0h112.390625a0,0 0 0 1 0,0v13.609375a5,5 0 0 1 -5,5h-102.390625a5,5 0 0 1 -5,-5v-13.609375a0,0 0 0 1 0,0z" style="stroke: rgb(0, 0, 0); fill: rgb(255, 255, 255); stroke-width: 0px;"/><text xml:space="preserve" x="6" y="12.703125" style="font-family: -apple-system, BlinkMacSystemFont, &quot;Segoe WPC&quot;, &quot;Segoe UI&quot;, Ubuntu, &quot;Droid Sans&quot;, sans-serif, &quot;PingFang SC&quot;; font-size: 9px; font-weight: normal; text-rendering: geometricPrecision;"><tspan>target_shape</tspan><tspan> = -1, 500</tspan></text><line class="node" x1="0" x2="112.390625" y1="0" y2="0" style="stroke: rgb(51, 51, 51); fill: none; stroke-width: 1px;"/></g><path class="node border" d="M5,0h102.390625a5,5 0 0 1 5,5v29.578125a5,5 0 0 1 -5,5h-102.390625a5,5 0 0 1 -5,-5v-29.578125a5,5 0 0 1 5,-5z" style="stroke: rgb(51, 51, 51); fill: none; stroke-width: 1px;"/></g></g></g><g id="node-InputLayer" class="node" transform="translate(76.0390625,142.1171875)" style="opacity: 1;"><g transform="translate(-50,-19.7890625)"><g><g class="node-item node-item-type node-item-type-layer" transform="translate(0,0)"><path d="M5,0h90a5,5 0 0 1 5,5v15.96875a0,0 0 0 1 0,0h-100a0,0 0 0 1 0,0v-15.96875a5,5 0 0 1 5,-5z" style="stroke: rgb(0, 0, 0); fill: rgb(51, 85, 136); stroke-width: 0px;"/><text x="6" y="14.640625" style="font-family: -apple-system, BlinkMacSystemFont, &quot;Segoe WPC&quot;, &quot;Segoe UI&quot;, Ubuntu, &quot;Droid Sans&quot;, sans-serif, &quot;PingFang SC&quot;; font-size: 11px; text-rendering: geometricPrecision; fill: rgb(255, 255, 255);">Dense</text><title>InputLayer</title></g><g class="node-attribute" transform="translate(0,20.96875)"><path d="M0,0h100a0,0 0 0 1 0,0v13.609375a5,5 0 0 1 -5,5h-90a5,5 0 0 1 -5,-5v-13.609375a0,0 0 0 1 0,0z" style="stroke: rgb(0, 0, 0); fill: rgb(255, 255, 255); stroke-width: 0px;"/><text xml:space="preserve" x="6" y="12.703125" style="font-family: -apple-system, BlinkMacSystemFont, &quot;Segoe WPC&quot;, &quot;Segoe UI&quot;, Ubuntu, &quot;Droid Sans&quot;, sans-serif, &quot;PingFang SC&quot;; font-size: 9px; font-weight: normal; text-rendering: geometricPrecision;"><tspan>units</tspan><tspan> = 50</tspan></text><line class="node" x1="0" x2="100" y1="0" y2="0" style="stroke: rgb(51, 51, 51); fill: none; stroke-width: 1px;"/></g><path class="node border" d="M5,0h90a5,5 0 0 1 5,5v29.578125a5,5 0 0 1 -5,5h-90a5,5 0 0 1 -5,-5v-29.578125a5,5 0 0 1 5,-5z" style="stroke: rgb(51, 51, 51); fill: none; stroke-width: 1px;"/></g></g></g><g id="node-InputDropoutLayer" class="node" transform="translate(76.0390625,201.6953125)" style="opacity: 1;"><g transform="translate(-50,-19.7890625)"><g><g class="node-item node-item-type node-item-type-dropout" transform="translate(0,0)"><path d="M5,0h90a5,5 0 0 1 5,5v15.96875a0,0 0 0 1 0,0h-100a0,0 0 0 1 0,0v-15.96875a5,5 0 0 1 5,-5z" style="stroke: rgb(0, 0, 0); fill: rgb(69, 71, 112); stroke-width: 0px;"/><text x="6" y="14.640625" style="font-family: -apple-system, BlinkMacSystemFont, &quot;Segoe WPC&quot;, &quot;Segoe UI&quot;, Ubuntu, &quot;Droid Sans&quot;, sans-serif, &quot;PingFang SC&quot;; font-size: 11px; text-rendering: geometricPrecision; fill: rgb(255, 255, 255);">Dropout</text><title>InputDropoutLayer</title></g><g class="node-attribute" transform="translate(0,20.96875)"><path d="M0,0h100a0,0 0 0 1 0,0v13.609375a5,5 0 0 1 -5,5h-90a5,5 0 0 1 -5,-5v-13.609375a0,0 0 0 1 0,0z" style="stroke: rgb(0, 0, 0); fill: rgb(255, 255, 255); stroke-width: 0px;"/><text xml:space="preserve" x="6" y="12.703125" style="font-family: -apple-system, BlinkMacSystemFont, &quot;Segoe WPC&quot;, &quot;Segoe UI&quot;, Ubuntu, &quot;Droid Sans&quot;, sans-serif, &quot;PingFang SC&quot;; font-size: 9px; font-weight: normal; text-rendering: geometricPrecision;"><tspan>rate</tspan><tspan> = 0.2</tspan></text><line class="node" x1="0" x2="100" y1="0" y2="0" style="stroke: rgb(51, 51, 51); fill: none; stroke-width: 1px;"/></g><path class="node border" d="M5,0h90a5,5 0 0 1 5,5v29.578125a5,5 0 0 1 -5,5h-90a5,5 0 0 1 -5,-5v-29.578125a5,5 0 0 1 5,-5z" style="stroke: rgb(51, 51, 51); fill: none; stroke-width: 1px;"/></g></g></g><g id="node-InputActivation" class="node" transform="translate(76.0390625,261.2734375)" style="opacity: 1;"><g transform="translate(-76.0390625,-19.7890625)"><g><g class="node-item node-item-type node-item-type-activation" transform="translate(0,0)"><path d="M5,0h142.078125a5,5 0 0 1 5,5v15.96875a0,0 0 0 1 0,0h-152.078125a0,0 0 0 1 0,0v-15.96875a5,5 0 0 1 5,-5z" style="stroke: rgb(0, 0, 0); fill: rgb(75, 27, 22); stroke-width: 0px;"/><text x="6" y="14.640625" style="font-family: -apple-system, BlinkMacSystemFont, &quot;Segoe WPC&quot;, &quot;Segoe UI&quot;, Ubuntu, &quot;Droid Sans&quot;, sans-serif, &quot;PingFang SC&quot;; font-size: 11px; text-rendering: geometricPrecision; fill: rgb(255, 255, 255);">LeakyReLU</text><title>InputActivation</title></g><g class="node-attribute" transform="translate(0,20.96875)"><path d="M0,0h152.078125a0,0 0 0 1 0,0v13.609375a5,5 0 0 1 -5,5h-142.078125a5,5 0 0 1 -5,-5v-13.609375a0,0 0 0 1 0,0z" style="stroke: rgb(0, 0, 0); fill: rgb(255, 255, 255); stroke-width: 0px;"/><text xml:space="preserve" x="6" y="12.703125" style="font-family: -apple-system, BlinkMacSystemFont, &quot;Segoe WPC&quot;, &quot;Segoe UI&quot;, Ubuntu, &quot;Droid Sans&quot;, sans-serif, &quot;PingFang SC&quot;; font-size: 9px; font-weight: normal; text-rendering: geometricPrecision;"><tspan>alpha</tspan><tspan> = 0.30000001192092896</tspan></text><line class="node" x1="0" x2="152.078125" y1="0" y2="0" style="stroke: rgb(51, 51, 51); fill: none; stroke-width: 1px;"/></g><path class="node border" d="M5,0h142.078125a5,5 0 0 1 5,5v29.578125a5,5 0 0 1 -5,5h-142.078125a5,5 0 0 1 -5,-5v-29.578125a5,5 0 0 1 5,-5z" style="stroke: rgb(51, 51, 51); fill: none; stroke-width: 1px;"/></g></g></g><g id="node-CoreLayer0" class="node" transform="translate(76.0390625,352.37500381469727)" style="opacity: 1;"><g transform="translate(-73.0078125,-51.312503814697266)"><g><g class="node-item node-item-type node-item-type-layer" transform="translate(0,0)"><path d="M5,0h136.015625a5,5 0 0 1 5,5v15.96875a0,0 0 0 1 0,0h-146.015625a0,0 0 0 1 0,0v-15.96875a5,5 0 0 1 5,-5z" style="stroke: rgb(0, 0, 0); fill: rgb(51, 85, 136); stroke-width: 0px;"/><text x="6" y="14.640625" style="font-family: -apple-system, BlinkMacSystemFont, &quot;Segoe WPC&quot;, &quot;Segoe UI&quot;, Ubuntu, &quot;Droid Sans&quot;, sans-serif, &quot;PingFang SC&quot;; font-size: 11px; text-rendering: geometricPrecision; fill: rgb(255, 255, 255);">LSTM</text><title>CoreLayer0</title></g><g class="node-attribute" transform="translate(0,20.96875)"><path d="M0,0h146.015625a0,0 0 0 1 0,0v76.65625a5,5 0 0 1 -5,5h-136.015625a5,5 0 0 1 -5,-5v-76.65625a0,0 0 0 1 0,0z" style="stroke: rgb(0, 0, 0); fill: rgb(255, 255, 255); stroke-width: 0px;"/><text xml:space="preserve" x="6" y="12.703125" style="font-family: -apple-system, BlinkMacSystemFont, &quot;Segoe WPC&quot;, &quot;Segoe UI&quot;, Ubuntu, &quot;Droid Sans&quot;, sans-serif, &quot;PingFang SC&quot;; font-size: 9px; font-weight: normal; text-rendering: geometricPrecision;"><tspan>dropout</tspan><tspan> = 0.2</tspan></text><text xml:space="preserve" x="6" y="25.3125" style="font-family: -apple-system, BlinkMacSystemFont, &quot;Segoe WPC&quot;, &quot;Segoe UI&quot;, Ubuntu, &quot;Droid Sans&quot;, sans-serif, &quot;PingFang SC&quot;; font-size: 9px; font-weight: normal; text-rendering: geometricPrecision;"><tspan>implementation</tspan><tspan> = 2</tspan></text><text xml:space="preserve" x="6" y="37.921875" style="font-family: -apple-system, BlinkMacSystemFont, &quot;Segoe WPC&quot;, &quot;Segoe UI&quot;, Ubuntu, &quot;Droid Sans&quot;, sans-serif, &quot;PingFang SC&quot;; font-size: 9px; font-weight: normal; text-rendering: geometricPrecision;"><tspan>recurrent_activation</tspan><tspan> = sigmoid</tspan></text><text xml:space="preserve" x="6" y="50.53125" style="font-family: -apple-system, BlinkMacSystemFont, &quot;Segoe WPC&quot;, &quot;Segoe UI&quot;, Ubuntu, &quot;Droid Sans&quot;, sans-serif, &quot;PingFang SC&quot;; font-size: 9px; font-weight: normal; text-rendering: geometricPrecision;"><tspan>return_sequences</tspan><tspan> = true</tspan></text><text xml:space="preserve" x="6" y="63.140625" style="font-family: -apple-system, BlinkMacSystemFont, &quot;Segoe WPC&quot;, &quot;Segoe UI&quot;, Ubuntu, &quot;Droid Sans&quot;, sans-serif, &quot;PingFang SC&quot;; font-size: 9px; font-weight: normal; text-rendering: geometricPrecision;"><tspan>time_major</tspan><tspan> = false</tspan></text><text xml:space="preserve" x="6" y="75.75" style="font-family: -apple-system, BlinkMacSystemFont, &quot;Segoe WPC&quot;, &quot;Segoe UI&quot;, Ubuntu, &quot;Droid Sans&quot;, sans-serif, &quot;PingFang SC&quot;; font-size: 9px; font-weight: normal; text-rendering: geometricPrecision;"><tspan>units</tspan><tspan> = 50</tspan></text><line class="node" x1="0" x2="146.015625" y1="0" y2="0" style="stroke: rgb(51, 51, 51); fill: none; stroke-width: 1px;"/></g><path class="node border" d="M5,0h136.015625a5,5 0 0 1 5,5v92.625a5,5 0 0 1 -5,5h-136.015625a5,5 0 0 1 -5,-5v-92.625a5,5 0 0 1 5,-5z" style="stroke: rgb(51, 51, 51); fill: none; stroke-width: 1px;"/></g></g></g><g id="node-CoreLayer1" class="node" transform="translate(76.0390625,475.0000114440918)" style="opacity: 1;"><g transform="translate(-73.0078125,-51.312503814697266)"><g><g class="node-item node-item-type node-item-type-layer" transform="translate(0,0)"><path d="M5,0h136.015625a5,5 0 0 1 5,5v15.96875a0,0 0 0 1 0,0h-146.015625a0,0 0 0 1 0,0v-15.96875a5,5 0 0 1 5,-5z" style="stroke: rgb(0, 0, 0); fill: rgb(51, 85, 136); stroke-width: 0px;"/><text x="6" y="14.640625" style="font-family: -apple-system, BlinkMacSystemFont, &quot;Segoe WPC&quot;, &quot;Segoe UI&quot;, Ubuntu, &quot;Droid Sans&quot;, sans-serif, &quot;PingFang SC&quot;; font-size: 11px; text-rendering: geometricPrecision; fill: rgb(255, 255, 255);">LSTM</text><title>CoreLayer1</title></g><g class="node-attribute" transform="translate(0,20.96875)"><path d="M0,0h146.015625a0,0 0 0 1 0,0v76.65625a5,5 0 0 1 -5,5h-136.015625a5,5 0 0 1 -5,-5v-76.65625a0,0 0 0 1 0,0z" style="stroke: rgb(0, 0, 0); fill: rgb(255, 255, 255); stroke-width: 0px;"/><text xml:space="preserve" x="6" y="12.703125" style="font-family: -apple-system, BlinkMacSystemFont, &quot;Segoe WPC&quot;, &quot;Segoe UI&quot;, Ubuntu, &quot;Droid Sans&quot;, sans-serif, &quot;PingFang SC&quot;; font-size: 9px; font-weight: normal; text-rendering: geometricPrecision;"><tspan>dropout</tspan><tspan> = 0.2</tspan></text><text xml:space="preserve" x="6" y="25.3125" style="font-family: -apple-system, BlinkMacSystemFont, &quot;Segoe WPC&quot;, &quot;Segoe UI&quot;, Ubuntu, &quot;Droid Sans&quot;, sans-serif, &quot;PingFang SC&quot;; font-size: 9px; font-weight: normal; text-rendering: geometricPrecision;"><tspan>implementation</tspan><tspan> = 2</tspan></text><text xml:space="preserve" x="6" y="37.921875" style="font-family: -apple-system, BlinkMacSystemFont, &quot;Segoe WPC&quot;, &quot;Segoe UI&quot;, Ubuntu, &quot;Droid Sans&quot;, sans-serif, &quot;PingFang SC&quot;; font-size: 9px; font-weight: normal; text-rendering: geometricPrecision;"><tspan>recurrent_activation</tspan><tspan> = sigmoid</tspan></text><text xml:space="preserve" x="6" y="50.53125" style="font-family: -apple-system, BlinkMacSystemFont, &quot;Segoe WPC&quot;, &quot;Segoe UI&quot;, Ubuntu, &quot;Droid Sans&quot;, sans-serif, &quot;PingFang SC&quot;; font-size: 9px; font-weight: normal; text-rendering: geometricPrecision;"><tspan>return_sequences</tspan><tspan> = true</tspan></text><text xml:space="preserve" x="6" y="63.140625" style="font-family: -apple-system, BlinkMacSystemFont, &quot;Segoe WPC&quot;, &quot;Segoe UI&quot;, Ubuntu, &quot;Droid Sans&quot;, sans-serif, &quot;PingFang SC&quot;; font-size: 9px; font-weight: normal; text-rendering: geometricPrecision;"><tspan>time_major</tspan><tspan> = false</tspan></text><text xml:space="preserve" x="6" y="75.75" style="font-family: -apple-system, BlinkMacSystemFont, &quot;Segoe WPC&quot;, &quot;Segoe UI&quot;, Ubuntu, &quot;Droid Sans&quot;, sans-serif, &quot;PingFang SC&quot;; font-size: 9px; font-weight: normal; text-rendering: geometricPrecision;"><tspan>units</tspan><tspan> = 50</tspan></text><line class="node" x1="0" x2="146.015625" y1="0" y2="0" style="stroke: rgb(51, 51, 51); fill: none; stroke-width: 1px;"/></g><path class="node border" d="M5,0h136.015625a5,5 0 0 1 5,5v92.625a5,5 0 0 1 -5,5h-136.015625a5,5 0 0 1 -5,-5v-92.625a5,5 0 0 1 5,-5z" style="stroke: rgb(51, 51, 51); fill: none; stroke-width: 1px;"/></g></g></g><g id="node-CoreLayer2" class="node" transform="translate(76.0390625,597.6250190734863)" style="opacity: 1;"><g transform="translate(-73.0078125,-51.312503814697266)"><g><g class="node-item node-item-type node-item-type-layer" transform="translate(0,0)"><path d="M5,0h136.015625a5,5 0 0 1 5,5v15.96875a0,0 0 0 1 0,0h-146.015625a0,0 0 0 1 0,0v-15.96875a5,5 0 0 1 5,-5z" style="stroke: rgb(0, 0, 0); fill: rgb(51, 85, 136); stroke-width: 0px;"/><text x="6" y="14.640625" style="font-family: -apple-system, BlinkMacSystemFont, &quot;Segoe WPC&quot;, &quot;Segoe UI&quot;, Ubuntu, &quot;Droid Sans&quot;, sans-serif, &quot;PingFang SC&quot;; font-size: 11px; text-rendering: geometricPrecision; fill: rgb(255, 255, 255);">LSTM</text><title>CoreLayer2</title></g><g class="node-attribute" transform="translate(0,20.96875)"><path d="M0,0h146.015625a0,0 0 0 1 0,0v76.65625a5,5 0 0 1 -5,5h-136.015625a5,5 0 0 1 -5,-5v-76.65625a0,0 0 0 1 0,0z" style="stroke: rgb(0, 0, 0); fill: rgb(255, 255, 255); stroke-width: 0px;"/><text xml:space="preserve" x="6" y="12.703125" style="font-family: -apple-system, BlinkMacSystemFont, &quot;Segoe WPC&quot;, &quot;Segoe UI&quot;, Ubuntu, &quot;Droid Sans&quot;, sans-serif, &quot;PingFang SC&quot;; font-size: 9px; font-weight: normal; text-rendering: geometricPrecision;"><tspan>dropout</tspan><tspan> = 0.2</tspan></text><text xml:space="preserve" x="6" y="25.3125" style="font-family: -apple-system, BlinkMacSystemFont, &quot;Segoe WPC&quot;, &quot;Segoe UI&quot;, Ubuntu, &quot;Droid Sans&quot;, sans-serif, &quot;PingFang SC&quot;; font-size: 9px; font-weight: normal; text-rendering: geometricPrecision;"><tspan>implementation</tspan><tspan> = 2</tspan></text><text xml:space="preserve" x="6" y="37.921875" style="font-family: -apple-system, BlinkMacSystemFont, &quot;Segoe WPC&quot;, &quot;Segoe UI&quot;, Ubuntu, &quot;Droid Sans&quot;, sans-serif, &quot;PingFang SC&quot;; font-size: 9px; font-weight: normal; text-rendering: geometricPrecision;"><tspan>recurrent_activation</tspan><tspan> = sigmoid</tspan></text><text xml:space="preserve" x="6" y="50.53125" style="font-family: -apple-system, BlinkMacSystemFont, &quot;Segoe WPC&quot;, &quot;Segoe UI&quot;, Ubuntu, &quot;Droid Sans&quot;, sans-serif, &quot;PingFang SC&quot;; font-size: 9px; font-weight: normal; text-rendering: geometricPrecision;"><tspan>return_sequences</tspan><tspan> = true</tspan></text><text xml:space="preserve" x="6" y="63.140625" style="font-family: -apple-system, BlinkMacSystemFont, &quot;Segoe WPC&quot;, &quot;Segoe UI&quot;, Ubuntu, &quot;Droid Sans&quot;, sans-serif, &quot;PingFang SC&quot;; font-size: 9px; font-weight: normal; text-rendering: geometricPrecision;"><tspan>time_major</tspan><tspan> = false</tspan></text><text xml:space="preserve" x="6" y="75.75" style="font-family: -apple-system, BlinkMacSystemFont, &quot;Segoe WPC&quot;, &quot;Segoe UI&quot;, Ubuntu, &quot;Droid Sans&quot;, sans-serif, &quot;PingFang SC&quot;; font-size: 9px; font-weight: normal; text-rendering: geometricPrecision;"><tspan>units</tspan><tspan> = 50</tspan></text><line class="node" x1="0" x2="146.015625" y1="0" y2="0" style="stroke: rgb(51, 51, 51); fill: none; stroke-width: 1px;"/></g><path class="node border" d="M5,0h136.015625a5,5 0 0 1 5,5v92.625a5,5 0 0 1 -5,5h-136.015625a5,5 0 0 1 -5,-5v-92.625a5,5 0 0 1 5,-5z" style="stroke: rgb(51, 51, 51); fill: none; stroke-width: 1px;"/></g></g></g><g id="node-CoreLayer3" class="node" transform="translate(76.0390625,720.2500267028809)" style="opacity: 1;"><g transform="translate(-73.0078125,-51.312503814697266)"><g><g class="node-item node-item-type node-item-type-layer" transform="translate(0,0)"><path d="M5,0h136.015625a5,5 0 0 1 5,5v15.96875a0,0 0 0 1 0,0h-146.015625a0,0 0 0 1 0,0v-15.96875a5,5 0 0 1 5,-5z" style="stroke: rgb(0, 0, 0); fill: rgb(51, 85, 136); stroke-width: 0px;"/><text x="6" y="14.640625" style="font-family: -apple-system, BlinkMacSystemFont, &quot;Segoe WPC&quot;, &quot;Segoe UI&quot;, Ubuntu, &quot;Droid Sans&quot;, sans-serif, &quot;PingFang SC&quot;; font-size: 11px; text-rendering: geometricPrecision; fill: rgb(255, 255, 255);">LSTM</text><title>CoreLayer3</title></g><g class="node-attribute" transform="translate(0,20.96875)"><path d="M0,0h146.015625a0,0 0 0 1 0,0v76.65625a5,5 0 0 1 -5,5h-136.015625a5,5 0 0 1 -5,-5v-76.65625a0,0 0 0 1 0,0z" style="stroke: rgb(0, 0, 0); fill: rgb(255, 255, 255); stroke-width: 0px;"/><text xml:space="preserve" x="6" y="12.703125" style="font-family: -apple-system, BlinkMacSystemFont, &quot;Segoe WPC&quot;, &quot;Segoe UI&quot;, Ubuntu, &quot;Droid Sans&quot;, sans-serif, &quot;PingFang SC&quot;; font-size: 9px; font-weight: normal; text-rendering: geometricPrecision;"><tspan>dropout</tspan><tspan> = 0.2</tspan></text><text xml:space="preserve" x="6" y="25.3125" style="font-family: -apple-system, BlinkMacSystemFont, &quot;Segoe WPC&quot;, &quot;Segoe UI&quot;, Ubuntu, &quot;Droid Sans&quot;, sans-serif, &quot;PingFang SC&quot;; font-size: 9px; font-weight: normal; text-rendering: geometricPrecision;"><tspan>implementation</tspan><tspan> = 2</tspan></text><text xml:space="preserve" x="6" y="37.921875" style="font-family: -apple-system, BlinkMacSystemFont, &quot;Segoe WPC&quot;, &quot;Segoe UI&quot;, Ubuntu, &quot;Droid Sans&quot;, sans-serif, &quot;PingFang SC&quot;; font-size: 9px; font-weight: normal; text-rendering: geometricPrecision;"><tspan>recurrent_activation</tspan><tspan> = sigmoid</tspan></text><text xml:space="preserve" x="6" y="50.53125" style="font-family: -apple-system, BlinkMacSystemFont, &quot;Segoe WPC&quot;, &quot;Segoe UI&quot;, Ubuntu, &quot;Droid Sans&quot;, sans-serif, &quot;PingFang SC&quot;; font-size: 9px; font-weight: normal; text-rendering: geometricPrecision;"><tspan>return_sequences</tspan><tspan> = true</tspan></text><text xml:space="preserve" x="6" y="63.140625" style="font-family: -apple-system, BlinkMacSystemFont, &quot;Segoe WPC&quot;, &quot;Segoe UI&quot;, Ubuntu, &quot;Droid Sans&quot;, sans-serif, &quot;PingFang SC&quot;; font-size: 9px; font-weight: normal; text-rendering: geometricPrecision;"><tspan>time_major</tspan><tspan> = false</tspan></text><text xml:space="preserve" x="6" y="75.75" style="font-family: -apple-system, BlinkMacSystemFont, &quot;Segoe WPC&quot;, &quot;Segoe UI&quot;, Ubuntu, &quot;Droid Sans&quot;, sans-serif, &quot;PingFang SC&quot;; font-size: 9px; font-weight: normal; text-rendering: geometricPrecision;"><tspan>units</tspan><tspan> = 50</tspan></text><line class="node" x1="0" x2="146.015625" y1="0" y2="0" style="stroke: rgb(51, 51, 51); fill: none; stroke-width: 1px;"/></g><path class="node border" d="M5,0h136.015625a5,5 0 0 1 5,5v92.625a5,5 0 0 1 -5,5h-136.015625a5,5 0 0 1 -5,-5v-92.625a5,5 0 0 1 5,-5z" style="stroke: rgb(51, 51, 51); fill: none; stroke-width: 1px;"/></g></g></g><g id="node-CoreLayer4" class="node" transform="translate(76.0390625,842.8750343322754)" style="opacity: 1;"><g transform="translate(-73.0078125,-51.312503814697266)"><g><g class="node-item node-item-type node-item-type-layer" transform="translate(0,0)"><path d="M5,0h136.015625a5,5 0 0 1 5,5v15.96875a0,0 0 0 1 0,0h-146.015625a0,0 0 0 1 0,0v-15.96875a5,5 0 0 1 5,-5z" style="stroke: rgb(0, 0, 0); fill: rgb(51, 85, 136); stroke-width: 0px;"/><text x="6" y="14.640625" style="font-family: -apple-system, BlinkMacSystemFont, &quot;Segoe WPC&quot;, &quot;Segoe UI&quot;, Ubuntu, &quot;Droid Sans&quot;, sans-serif, &quot;PingFang SC&quot;; font-size: 11px; text-rendering: geometricPrecision; fill: rgb(255, 255, 255);">LSTM</text><title>CoreLayer4</title></g><g class="node-attribute" transform="translate(0,20.96875)"><path d="M0,0h146.015625a0,0 0 0 1 0,0v76.65625a5,5 0 0 1 -5,5h-136.015625a5,5 0 0 1 -5,-5v-76.65625a0,0 0 0 1 0,0z" style="stroke: rgb(0, 0, 0); fill: rgb(255, 255, 255); stroke-width: 0px;"/><text xml:space="preserve" x="6" y="12.703125" style="font-family: -apple-system, BlinkMacSystemFont, &quot;Segoe WPC&quot;, &quot;Segoe UI&quot;, Ubuntu, &quot;Droid Sans&quot;, sans-serif, &quot;PingFang SC&quot;; font-size: 9px; font-weight: normal; text-rendering: geometricPrecision;"><tspan>dropout</tspan><tspan> = 0.2</tspan></text><text xml:space="preserve" x="6" y="25.3125" style="font-family: -apple-system, BlinkMacSystemFont, &quot;Segoe WPC&quot;, &quot;Segoe UI&quot;, Ubuntu, &quot;Droid Sans&quot;, sans-serif, &quot;PingFang SC&quot;; font-size: 9px; font-weight: normal; text-rendering: geometricPrecision;"><tspan>implementation</tspan><tspan> = 2</tspan></text><text xml:space="preserve" x="6" y="37.921875" style="font-family: -apple-system, BlinkMacSystemFont, &quot;Segoe WPC&quot;, &quot;Segoe UI&quot;, Ubuntu, &quot;Droid Sans&quot;, sans-serif, &quot;PingFang SC&quot;; font-size: 9px; font-weight: normal; text-rendering: geometricPrecision;"><tspan>recurrent_activation</tspan><tspan> = sigmoid</tspan></text><text xml:space="preserve" x="6" y="50.53125" style="font-family: -apple-system, BlinkMacSystemFont, &quot;Segoe WPC&quot;, &quot;Segoe UI&quot;, Ubuntu, &quot;Droid Sans&quot;, sans-serif, &quot;PingFang SC&quot;; font-size: 9px; font-weight: normal; text-rendering: geometricPrecision;"><tspan>return_sequences</tspan><tspan> = true</tspan></text><text xml:space="preserve" x="6" y="63.140625" style="font-family: -apple-system, BlinkMacSystemFont, &quot;Segoe WPC&quot;, &quot;Segoe UI&quot;, Ubuntu, &quot;Droid Sans&quot;, sans-serif, &quot;PingFang SC&quot;; font-size: 9px; font-weight: normal; text-rendering: geometricPrecision;"><tspan>time_major</tspan><tspan> = false</tspan></text><text xml:space="preserve" x="6" y="75.75" style="font-family: -apple-system, BlinkMacSystemFont, &quot;Segoe WPC&quot;, &quot;Segoe UI&quot;, Ubuntu, &quot;Droid Sans&quot;, sans-serif, &quot;PingFang SC&quot;; font-size: 9px; font-weight: normal; text-rendering: geometricPrecision;"><tspan>units</tspan><tspan> = 50</tspan></text><line class="node" x1="0" x2="146.015625" y1="0" y2="0" style="stroke: rgb(51, 51, 51); fill: none; stroke-width: 1px;"/></g><path class="node border" d="M5,0h136.015625a5,5 0 0 1 5,5v92.625a5,5 0 0 1 -5,5h-136.015625a5,5 0 0 1 -5,-5v-92.625a5,5 0 0 1 5,-5z" style="stroke: rgb(51, 51, 51); fill: none; stroke-width: 1px;"/></g></g></g><g id="node-OutputLayer" class="node" transform="translate(76.0390625,933.9766006469727)" style="opacity: 1;"><g transform="translate(-50,-19.7890625)"><g><g class="node-item node-item-type node-item-type-layer" transform="translate(0,0)"><path d="M5,0h90a5,5 0 0 1 5,5v15.96875a0,0 0 0 1 0,0h-100a0,0 0 0 1 0,0v-15.96875a5,5 0 0 1 5,-5z" style="stroke: rgb(0, 0, 0); fill: rgb(51, 85, 136); stroke-width: 0px;"/><text x="6" y="14.640625" style="font-family: -apple-system, BlinkMacSystemFont, &quot;Segoe WPC&quot;, &quot;Segoe UI&quot;, Ubuntu, &quot;Droid Sans&quot;, sans-serif, &quot;PingFang SC&quot;; font-size: 11px; text-rendering: geometricPrecision; fill: rgb(255, 255, 255);">Dense</text><title>OutputLayer</title></g><g class="node-attribute" transform="translate(0,20.96875)"><path d="M0,0h100a0,0 0 0 1 0,0v13.609375a5,5 0 0 1 -5,5h-90a5,5 0 0 1 -5,-5v-13.609375a0,0 0 0 1 0,0z" style="stroke: rgb(0, 0, 0); fill: rgb(255, 255, 255); stroke-width: 0px;"/><text xml:space="preserve" x="6" y="12.703125" style="font-family: -apple-system, BlinkMacSystemFont, &quot;Segoe WPC&quot;, &quot;Segoe UI&quot;, Ubuntu, &quot;Droid Sans&quot;, sans-serif, &quot;PingFang SC&quot;; font-size: 9px; font-weight: normal; text-rendering: geometricPrecision;"><tspan>units</tspan><tspan> = 2</tspan></text><line class="node" x1="0" x2="100" y1="0" y2="0" style="stroke: rgb(51, 51, 51); fill: none; stroke-width: 1px;"/></g><path class="node border" d="M5,0h90a5,5 0 0 1 5,5v29.578125a5,5 0 0 1 -5,5h-90a5,5 0 0 1 -5,-5v-29.578125a5,5 0 0 1 5,-5z" style="stroke: rgb(51, 51, 51); fill: none; stroke-width: 1px;"/></g></g></g><g id="node-OutputActivation" class="node" transform="translate(76.0390625,993.5547256469727)" style="opacity: 1;"><g transform="translate(-50,-19.7890625)"><g><g class="node-item node-item-type node-item-type-activation" transform="translate(0,0)"><path d="M5,0h90a5,5 0 0 1 5,5v15.96875a0,0 0 0 1 0,0h-100a0,0 0 0 1 0,0v-15.96875a5,5 0 0 1 5,-5z" style="stroke: rgb(0, 0, 0); fill: rgb(75, 27, 22); stroke-width: 0px;"/><text x="6" y="14.640625" style="font-family: -apple-system, BlinkMacSystemFont, &quot;Segoe WPC&quot;, &quot;Segoe UI&quot;, Ubuntu, &quot;Droid Sans&quot;, sans-serif, &quot;PingFang SC&quot;; font-size: 11px; text-rendering: geometricPrecision; fill: rgb(255, 255, 255);">LeakyReLU</text><title>OutputActivation</title></g><g class="node-attribute" transform="translate(0,20.96875)"><path d="M0,0h100a0,0 0 0 1 0,0v13.609375a5,5 0 0 1 -5,5h-90a5,5 0 0 1 -5,-5v-13.609375a0,0 0 0 1 0,0z" style="stroke: rgb(0, 0, 0); fill: rgb(255, 255, 255); stroke-width: 0px;"/><text xml:space="preserve" x="6" y="12.703125" style="font-family: -apple-system, BlinkMacSystemFont, &quot;Segoe WPC&quot;, &quot;Segoe UI&quot;, Ubuntu, &quot;Droid Sans&quot;, sans-serif, &quot;PingFang SC&quot;; font-size: 9px; font-weight: normal; text-rendering: geometricPrecision;"><tspan>alpha</tspan><tspan> = -1</tspan></text><line class="node" x1="0" x2="100" y1="0" y2="0" style="stroke: rgb(51, 51, 51); fill: none; stroke-width: 1px;"/></g><path class="node border" d="M5,0h90a5,5 0 0 1 5,5v29.578125a5,5 0 0 1 -5,5h-90a5,5 0 0 1 -5,-5v-29.578125a5,5 0 0 1 5,-5z" style="stroke: rgb(51, 51, 51); fill: none; stroke-width: 1px;"/></g></g></g><g class="node graph-input" transform="translate(76.0390625,10.484375)" style="opacity: 1;"><g transform="translate(-20.2890625,-10.484375)"><g><g class="node-item graph-item-input" transform="translate(0,0)"><path d="M5,0h30.578125a5,5 0 0 1 5,5v10.96875a5,5 0 0 1 -5,5h-30.578125a5,5 0 0 1 -5,-5v-10.96875a5,5 0 0 1 5,-5z" style="stroke: rgb(0, 0, 0); fill: rgb(238, 238, 238); stroke-width: 0px;"/><text x="6" y="14.640625" style="font-family: -apple-system, BlinkMacSystemFont, &quot;Segoe WPC&quot;, &quot;Segoe UI&quot;, Ubuntu, &quot;Droid Sans&quot;, sans-serif, &quot;PingFang SC&quot;; font-size: 11px; text-rendering: geometricPrecision;">input</text><title>float32[?,?,20,25]</title></g><path class="node border" d="M5,0h30.578125a5,5 0 0 1 5,5v10.96875a5,5 0 0 1 -5,5h-30.578125a5,5 0 0 1 -5,-5v-10.96875a5,5 0 0 1 5,-5z" style="stroke: rgb(51, 51, 51); fill: none; stroke-width: 1px;"/></g></g></g><g class="node" transform="translate(76.0390625,1043.8281631469727)" style="opacity: 1;"><g transform="translate(-51.492191314697266,-10.484375)"><g><g class="node-item graph-item-output" transform="translate(0,0)"><path d="M5,0h92.984375a5,5 0 0 1 5,5v10.96875a5,5 0 0 1 -5,5h-92.984375a5,5 0 0 1 -5,-5v-10.96875a5,5 0 0 1 5,-5z" style="stroke: rgb(0, 0, 0); fill: rgb(238, 238, 238); stroke-width: 0px;"/><text x="6" y="14.640625" style="font-family: -apple-system, BlinkMacSystemFont, &quot;Segoe WPC&quot;, &quot;Segoe UI&quot;, Ubuntu, &quot;Droid Sans&quot;, sans-serif, &quot;PingFang SC&quot;; font-size: 11px; text-rendering: geometricPrecision;">OutputActivation</text></g><path class="node border" d="M5,0h92.984375a5,5 0 0 1 5,5v10.96875a5,5 0 0 1 -5,5h-92.984375a5,5 0 0 1 -5,-5v-10.96875a5,5 0 0 1 5,-5z" style="stroke: rgb(51, 51, 51); fill: none; stroke-width: 1px;"/></g></g></g></g></g></svg>
